{
	"asset":{
		"generator":"Khronos glTF Blender I/O v4.5.49",
		"version":"2.0"
	},
	"scene":0,
	"scenes":[
		{
			"extras":{
				"bc":{
					"shape":null,
					"collection":null,
					"recall_collection":{},
					"bevel":null,
					"lattice":null,
					"running":0,
					"original_active":null,
					"last":{
						"surface":"OBJECT"
					},
					"plane":null,
					"snap":{
						"hit":false
					},
					"empty":null,
					"location":[
						0.0,
						0.0,
						0.0
					],
					"wedge_point":2,
					"slice":null,
					"inset":null,
					"stored_shape":{}
				},
				"hops":{
					"collection":{}
				}
			},
			"name":"Scene",
			"nodes":[
				0
			]
		}
	],
	"nodes":[
		{
			"extras":{
				"bc":{
					"array_axis":0,
					"shape":1,
					"target":{
						"name":"Cube.073",
						"type":"Object"
					},
					"applied":1
				},
				"hops":{
					"status":3,
					"last_array_axis":1
				},
				"prop":0.9599999785423279
			},
			"mesh":0,
			"name":"Cutter.014",
			"rotation":[
				0.7071065902709961,
				0,
				0,
				0.7071069478988647
			],
			"scale":[
				1.1988074779510498,
				2.4123363494873047,
				1.1988074779510498
			],
			"translation":[
				-0.3546297550201416,
				0.088223397731781,
				-0.0758175477385521
			]
		}
	],
	"meshes":[
		{
			"extras":{
				"bc":{},
				"hops":{},
				"auto_smooth_angle":1.0471975803375244,
				"use_auto_smooth":1
			},
			"name":"Cutter.015",
			"primitives":[
				{
					"attributes":{
						"POSITION":0,
						"NORMAL":1
					},
					"indices":2
				}
			]
		}
	],
	"accessors":[
		{
			"bufferView":0,
			"componentType":5126,
			"count":128,
			"max":[
				0.009419245645403862,
				0.089045949280262,
				0.009419331327080727
			],
			"min":[
				-0.009419302456080914,
				-0.017547255381941795,
				-0.009419270791113377
			],
			"type":"VEC3"
		},
		{
			"bufferView":1,
			"componentType":5126,
			"count":128,
			"type":"VEC3"
		},
		{
			"bufferView":2,
			"componentType":5123,
			"count":372,
			"type":"SCALAR"
		}
	],
	"bufferViews":[
		{
			"buffer":0,
			"byteLength":1536,
			"byteOffset":0,
			"target":34962
		},
		{
			"buffer":0,
			"byteLength":1536,
			"byteOffset":1536,
			"target":34962
		},
		{
			"buffer":0,
			"byteLength":744,
			"byteOffset":3072,
			"target":34963
		}
	],
	"buffers":[
		{
			"byteLength":3816,
			"uri":"peg.bin"
		}
	]
}
