{
	"asset":{
		"generator":"Khronos glTF Blender I/O v4.5.49",
		"version":"2.0"
	},
	"scene":0,
	"scenes":[
		{
			"extras":{
				"bc":{
					"shape":null,
					"collection":null,
					"recall_collection":{},
					"bevel":null,
					"lattice":null,
					"running":0,
					"original_active":null,
					"last":{
						"surface":"OBJECT"
					},
					"plane":null,
					"snap":{
						"hit":false
					},
					"empty":null,
					"location":[
						0.0,
						0.0,
						0.0
					],
					"wedge_point":2,
					"slice":null,
					"inset":null,
					"stored_shape":{}
				},
				"hops":{
					"collection":{}
				}
			},
			"name":"Scene",
			"nodes":[
				26
			]
		}
	],
	"nodes":[
		{
			"extras":{
				"hops":{}
			},
			"name":"c_panel_l",
			"translation":[
				-0.4549539089202881,
				0,
				0
			]
		},
		{
			"extras":{
				"hops":{}
			},
			"name":"c_panel_r",
			"translation":[
				0.45495355129241943,
				0,
				0
			]
		},
		{
			"extras":{
				"hops":{},
				"bc":{}
			},
			"mesh":0,
			"name":"Cube.074",
			"translation":[
				0,
				0.10557198524475098,
				0
			]
		},
		{
			"extras":{
				"hops":{},
				"bc":{}
			},
			"mesh":1,
			"name":"Cube.075",
			"translation":[
				0,
				-0.06170031428337097,
				0
			]
		},
		{
			"extras":{
				"hops":{},
				"bc":{}
			},
			"mesh":2,
			"name":"Cube.076",
			"translation":[
				0,
				-0.1494559347629547,
				0
			]
		},
		{
			"extras":{
				"hops":{}
			},
			"name":"Empty.004",
			"translation":[
				0.35639405250549316,
				0.088223397731781,
				-0.13966678082942963
			]
		},
		{
			"extras":{
				"hops":{}
			},
			"name":"Empty.005",
			"translation":[
				0.0007654428482055664,
				0.088223397731781,
				-0.1396668255329132
			]
		},
		{
			"extras":{
				"hops":{}
			},
			"name":"Empty.006",
			"translation":[
				-0.3546297550201416,
				0.088223397731781,
				-0.1396668702363968
			]
		},
		{
			"extras":{
				"hops":{}
			},
			"name":"Empty.007",
			"translation":[
				-0.17692017555236816,
				-0.08209988474845886,
				-0.1396668553352356
			]
		},
		{
			"extras":{
				"hops":{}
			},
			"name":"Empty.008",
			"translation":[
				-0.3546297550201416,
				-0.08209988474845886,
				-0.1396668702363968
			]
		},
		{
			"extras":{
				"hops":{}
			},
			"name":"Empty.009",
			"translation":[
				-0.08814334869384766,
				-0.1671040654182434,
				-0.1396668255329132
			]
		},
		{
			"extras":{
				"hops":{}
			},
			"name":"Empty.010",
			"translation":[
				0.3562518358230591,
				-0.1671040654182434,
				-0.13966678082942963
			]
		},
		{
			"extras":{
				"hops":{},
				"bc":{}
			},
			"mesh":3,
			"name":"m_panel_tb",
			"translation":[
				0,
				0.31881606578826904,
				0
			]
		},
		{
			"children":[
				0,
				1,
				2,
				3,
				4,
				5,
				6,
				7,
				8,
				9,
				10,
				11,
				12
			],
			"extras":{
				"hops":{}
			},
			"name":"c_box_sx",
			"translation":[
				0,
				0,
				0.0638493224978447
			]
		},
		{
			"extras":{
				"hops":{},
				"object":{
					"name":"c_panel_l",
					"type":"Object"
				},
				"type":"copy_s_x_a"
			},
			"name":"c_panel_b_l",
			"scale":[
				0.018814504146575928,
				0.018814504146575928,
				0.018814504146575928
			],
			"translation":[
				-0.3965611755847931,
				0,
				-0.09536635875701904
			]
		},
		{
			"extras":{
				"hops":{}
			},
			"name":"c_panel_b_r",
			"scale":[
				0.018814504146575928,
				0.018814504146575928,
				0.018814504146575928
			],
			"translation":[
				0.4060184955596924,
				0,
				-0.09536629915237427
			]
		},
		{
			"extras":{
				"bc":{
					"array_axis":0,
					"shape":1,
					"target":{
						"name":"Cube.073",
						"type":"Object"
					},
					"applied":1
				},
				"hops":{
					"status":3,
					"last_array_axis":1
				},
				"prop":0.9599999785423279
			},
			"mesh":4,
			"name":"Cutter.014",
			"rotation":[
				0.7071065902709961,
				0,
				0,
				0.7071069478988647
			],
			"scale":[
				1.1988074779510498,
				2.4123363494873047,
				1.1988074779510498
			],
			"translation":[
				-0.3546297550201416,
				0.088223397731781,
				-0.0758175477385521
			]
		},
		{
			"extras":{
				"bc":{
					"array_axis":0,
					"shape":1,
					"target":{
						"name":"Cube.073",
						"type":"Object"
					},
					"applied":1
				},
				"hops":{
					"status":3,
					"last_array_axis":1
				}
			},
			"mesh":5,
			"name":"Cutter.015",
			"rotation":[
				0.7071065902709961,
				0,
				0,
				0.7071069478988647
			],
			"scale":[
				1.1988074779510498,
				2.4123363494873047,
				1.1988074779510498
			],
			"translation":[
				0.0007654428482055664,
				0.088223397731781,
				-0.07581750303506851
			]
		},
		{
			"extras":{
				"bc":{
					"array_axis":0,
					"shape":1,
					"target":{
						"name":"Cube.073",
						"type":"Object"
					},
					"applied":1
				},
				"hops":{
					"status":3,
					"last_array_axis":1
				}
			},
			"mesh":6,
			"name":"Cutter.016",
			"rotation":[
				0.7071065902709961,
				0,
				0,
				0.7071069478988647
			],
			"scale":[
				1.1988074779510498,
				2.4123363494873047,
				1.1988074779510498
			],
			"translation":[
				0.35639405250549316,
				0.088223397731781,
				-0.07581745833158493
			]
		},
		{
			"extras":{
				"bc":{
					"array_axis":0,
					"shape":1,
					"target":{
						"name":"Cube.073",
						"type":"Object"
					},
					"applied":1
				},
				"hops":{
					"status":3,
					"last_array_axis":1
				}
			},
			"mesh":7,
			"name":"Cutter.017",
			"rotation":[
				0.7071065902709961,
				0,
				0,
				0.7071069478988647
			],
			"scale":[
				1.1988074779510498,
				2.4123363494873047,
				1.1988074779510498
			],
			"translation":[
				-0.3546297550201416,
				-0.08209988474845886,
				-0.0758175477385521
			]
		},
		{
			"extras":{
				"bc":{
					"array_axis":0,
					"shape":1,
					"target":{
						"name":"Cube.073",
						"type":"Object"
					},
					"applied":1
				},
				"hops":{
					"status":3,
					"last_array_axis":1
				}
			},
			"mesh":8,
			"name":"Cutter.018",
			"rotation":[
				0.7071065902709961,
				0,
				0,
				0.7071069478988647
			],
			"scale":[
				1.1988074779510498,
				2.4123363494873047,
				1.1988074779510498
			],
			"translation":[
				-0.17692017555236816,
				-0.08209988474845886,
				-0.0758175253868103
			]
		},
		{
			"extras":{
				"bc":{
					"array_axis":0,
					"shape":1,
					"target":{
						"name":"Cube.073",
						"type":"Object"
					},
					"applied":1
				},
				"hops":{
					"status":3,
					"last_array_axis":1
				}
			},
			"mesh":9,
			"name":"Cutter.019",
			"rotation":[
				0.7071065902709961,
				0,
				0,
				0.7071069478988647
			],
			"scale":[
				1.1988074779510498,
				2.4123363494873047,
				1.1988074779510498
			],
			"translation":[
				-0.08814334869384766,
				-0.1671040654182434,
				-0.07581751048564911
			]
		},
		{
			"extras":{
				"bc":{
					"array_axis":0,
					"shape":1,
					"target":{
						"name":"Cube.073",
						"type":"Object"
					},
					"applied":1
				},
				"hops":{
					"status":3,
					"last_array_axis":1
				}
			},
			"mesh":10,
			"name":"Cutter.020",
			"rotation":[
				0.7071065902709961,
				0,
				0,
				0.7071069478988647
			],
			"scale":[
				1.1988074779510498,
				2.4123363494873047,
				1.1988074779510498
			],
			"translation":[
				0.3562518358230591,
				-0.1671040654182434,
				-0.07581745833158493
			]
		},
		{
			"extras":{
				"hops":{},
				"bc":{}
			},
			"mesh":11,
			"name":"m_panel_b",
			"translation":[
				0,
				0,
				-0.09536632895469666
			]
		},
		{
			"extras":{
				"hops":{},
				"bc":{}
			},
			"mesh":12,
			"name":"m_panel_l",
			"scale":[
				0.010000002570450306,
				0.6365113854408264,
				0.17000003159046173
			],
			"translation":[
				-0.4549539089202881,
				0,
				0.0638493150472641
			]
		},
		{
			"extras":{
				"hops":{},
				"bc":{}
			},
			"mesh":13,
			"name":"m_panel_r",
			"scale":[
				0.010000002570450306,
				0.6365113854408264,
				0.17000003159046173
			],
			"translation":[
				0.45495355129241943,
				0,
				0.0638493150472641
			]
		},
		{
			"children":[
				13,
				14,
				15,
				16,
				17,
				18,
				19,
				20,
				21,
				22,
				23,
				24,
				25
			],
			"extras":{
				"hops":{},
				"value":1.0
			},
			"name":"unit_pegboard"
		}
	],
	"meshes":[
		{
			"extras":{
				"hops":{},
				"bc":{}
			},
			"name":"Cube.013",
			"primitives":[
				{
					"attributes":{
						"POSITION":0,
						"NORMAL":1,
						"TEXCOORD_0":2
					},
					"indices":3
				}
			]
		},
		{
			"extras":{
				"hops":{},
				"bc":{}
			},
			"name":"Cube.017",
			"primitives":[
				{
					"attributes":{
						"POSITION":4,
						"NORMAL":5,
						"TEXCOORD_0":6
					},
					"indices":3
				}
			]
		},
		{
			"extras":{
				"hops":{},
				"bc":{}
			},
			"name":"Cube.018",
			"primitives":[
				{
					"attributes":{
						"POSITION":7,
						"NORMAL":8,
						"TEXCOORD_0":9
					},
					"indices":3
				}
			]
		},
		{
			"extras":{
				"hops":{},
				"bc":{}
			},
			"name":"Cube.097",
			"primitives":[
				{
					"attributes":{
						"POSITION":10,
						"NORMAL":11,
						"TEXCOORD_0":12
					},
					"indices":13
				}
			]
		},
		{
			"extras":{
				"bc":{},
				"hops":{},
				"auto_smooth_angle":1.0471975803375244,
				"use_auto_smooth":1
			},
			"name":"Cutter.015",
			"primitives":[
				{
					"attributes":{
						"POSITION":14,
						"NORMAL":15
					},
					"indices":16
				}
			]
		},
		{
			"extras":{
				"bc":{},
				"hops":{},
				"auto_smooth_angle":1.0471975803375244,
				"use_auto_smooth":1
			},
			"name":"Cutter.016",
			"primitives":[
				{
					"attributes":{
						"POSITION":17,
						"NORMAL":18
					},
					"indices":16
				}
			]
		},
		{
			"extras":{
				"bc":{},
				"hops":{},
				"auto_smooth_angle":1.0471975803375244,
				"use_auto_smooth":1
			},
			"name":"Cutter.017",
			"primitives":[
				{
					"attributes":{
						"POSITION":19,
						"NORMAL":20
					},
					"indices":16
				}
			]
		},
		{
			"extras":{
				"bc":{},
				"hops":{},
				"auto_smooth_angle":1.0471975803375244,
				"use_auto_smooth":1
			},
			"name":"Cutter.018",
			"primitives":[
				{
					"attributes":{
						"POSITION":21,
						"NORMAL":22
					},
					"indices":16
				}
			]
		},
		{
			"extras":{
				"bc":{},
				"hops":{},
				"auto_smooth_angle":1.0471975803375244,
				"use_auto_smooth":1
			},
			"name":"Cutter.019",
			"primitives":[
				{
					"attributes":{
						"POSITION":23,
						"NORMAL":24
					},
					"indices":16
				}
			]
		},
		{
			"extras":{
				"bc":{},
				"hops":{},
				"auto_smooth_angle":1.0471975803375244,
				"use_auto_smooth":1
			},
			"name":"Cutter.020",
			"primitives":[
				{
					"attributes":{
						"POSITION":25,
						"NORMAL":26
					},
					"indices":16
				}
			]
		},
		{
			"extras":{
				"bc":{},
				"hops":{},
				"auto_smooth_angle":1.0471975803375244,
				"use_auto_smooth":1
			},
			"name":"Cutter.021",
			"primitives":[
				{
					"attributes":{
						"POSITION":27,
						"NORMAL":28
					},
					"indices":16
				}
			]
		},
		{
			"extras":{
				"hops":{},
				"use_auto_smooth":1,
				"bc":{},
				"auto_smooth_angle":1.0471975803375244
			},
			"name":"Cube.055",
			"primitives":[
				{
					"attributes":{
						"POSITION":29,
						"NORMAL":30,
						"TEXCOORD_0":31
					},
					"indices":32
				}
			]
		},
		{
			"extras":{
				"hops":{},
				"bc":{}
			},
			"name":"Cube.052",
			"primitives":[
				{
					"attributes":{
						"POSITION":33,
						"NORMAL":34,
						"TEXCOORD_0":35
					},
					"indices":36
				}
			]
		},
		{
			"extras":{
				"hops":{},
				"bc":{}
			},
			"name":"Cube.096",
			"primitives":[
				{
					"attributes":{
						"POSITION":37,
						"NORMAL":38,
						"TEXCOORD_0":39
					},
					"indices":40
				}
			]
		}
	],
	"accessors":[
		{
			"bufferView":0,
			"componentType":5126,
			"count":24,
			"max":[
				0.391949862241745,
				0.009098304435610771,
				0.07244595140218735
			],
			"min":[
				-0.3919498920440674,
				-0.009098304435610771,
				-0.1700000762939453
			],
			"type":"VEC3"
		},
		{
			"bufferView":1,
			"componentType":5126,
			"count":24,
			"type":"VEC3"
		},
		{
			"bufferView":2,
			"componentType":5126,
			"count":24,
			"type":"VEC2"
		},
		{
			"bufferView":3,
			"componentType":5123,
			"count":36,
			"type":"SCALAR"
		},
		{
			"bufferView":4,
			"componentType":5126,
			"count":24,
			"max":[
				-0.13358482718467712,
				0.009098304435610771,
				0.07244595140218735
			],
			"min":[
				-0.3919498920440674,
				-0.009098304435610771,
				-0.17000006139278412
			],
			"type":"VEC3"
		},
		{
			"bufferView":5,
			"componentType":5126,
			"count":24,
			"type":"VEC3"
		},
		{
			"bufferView":6,
			"componentType":5126,
			"count":24,
			"type":"VEC2"
		},
		{
			"bufferView":7,
			"componentType":5126,
			"count":24,
			"max":[
				0.391949862241745,
				0.009098304435610771,
				0.07244595140218735
			],
			"min":[
				-0.1260617971420288,
				-0.009098304435610771,
				-0.1700000762939453
			],
			"type":"VEC3"
		},
		{
			"bufferView":8,
			"componentType":5126,
			"count":24,
			"type":"VEC3"
		},
		{
			"bufferView":9,
			"componentType":5126,
			"count":24,
			"type":"VEC2"
		},
		{
			"bufferView":10,
			"componentType":5126,
			"count":48,
			"max":[
				0.454828143119812,
				0.009098324924707413,
				0.1700000762939453
			],
			"min":[
				-0.4548281133174896,
				-0.6467304229736328,
				-0.1700000762939453
			],
			"type":"VEC3"
		},
		{
			"bufferView":11,
			"componentType":5126,
			"count":48,
			"type":"VEC3"
		},
		{
			"bufferView":12,
			"componentType":5126,
			"count":48,
			"type":"VEC2"
		},
		{
			"bufferView":13,
			"componentType":5123,
			"count":72,
			"type":"SCALAR"
		},
		{
			"bufferView":14,
			"componentType":5126,
			"count":128,
			"max":[
				0.009419245645403862,
				0.089045949280262,
				0.009419331327080727
			],
			"min":[
				-0.009419302456080914,
				-0.017547255381941795,
				-0.009419270791113377
			],
			"type":"VEC3"
		},
		{
			"bufferView":15,
			"componentType":5126,
			"count":128,
			"type":"VEC3"
		},
		{
			"bufferView":16,
			"componentType":5123,
			"count":372,
			"type":"SCALAR"
		},
		{
			"bufferView":17,
			"componentType":5126,
			"count":128,
			"max":[
				0.009419245645403862,
				0.089045949280262,
				0.009419331327080727
			],
			"min":[
				-0.009419302456080914,
				-0.017547255381941795,
				-0.009419270791113377
			],
			"type":"VEC3"
		},
		{
			"bufferView":18,
			"componentType":5126,
			"count":128,
			"type":"VEC3"
		},
		{
			"bufferView":19,
			"componentType":5126,
			"count":128,
			"max":[
				0.009419245645403862,
				0.089045949280262,
				0.009419331327080727
			],
			"min":[
				-0.009419302456080914,
				-0.017547255381941795,
				-0.009419270791113377
			],
			"type":"VEC3"
		},
		{
			"bufferView":20,
			"componentType":5126,
			"count":128,
			"type":"VEC3"
		},
		{
			"bufferView":21,
			"componentType":5126,
			"count":128,
			"max":[
				0.009419245645403862,
				0.089045949280262,
				0.009419331327080727
			],
			"min":[
				-0.009419302456080914,
				-0.017547255381941795,
				-0.009419270791113377
			],
			"type":"VEC3"
		},
		{
			"bufferView":22,
			"componentType":5126,
			"count":128,
			"type":"VEC3"
		},
		{
			"bufferView":23,
			"componentType":5126,
			"count":128,
			"max":[
				0.009419245645403862,
				0.089045949280262,
				0.009419331327080727
			],
			"min":[
				-0.009419302456080914,
				-0.017547255381941795,
				-0.009419270791113377
			],
			"type":"VEC3"
		},
		{
			"bufferView":24,
			"componentType":5126,
			"count":128,
			"type":"VEC3"
		},
		{
			"bufferView":25,
			"componentType":5126,
			"count":128,
			"max":[
				0.009419245645403862,
				0.089045949280262,
				0.009419331327080727
			],
			"min":[
				-0.009419302456080914,
				-0.017547255381941795,
				-0.009419270791113377
			],
			"type":"VEC3"
		},
		{
			"bufferView":26,
			"componentType":5126,
			"count":128,
			"type":"VEC3"
		},
		{
			"bufferView":27,
			"componentType":5126,
			"count":128,
			"max":[
				0.009419245645403862,
				0.089045949280262,
				0.009419331327080727
			],
			"min":[
				-0.009419302456080914,
				-0.017547255381941795,
				-0.009419270791113377
			],
			"type":"VEC3"
		},
		{
			"bufferView":28,
			"componentType":5126,
			"count":128,
			"type":"VEC3"
		},
		{
			"bufferView":29,
			"componentType":5126,
			"count":24,
			"max":[
				0.40601861476898193,
				0.3285251557826996,
				0.010000031441450119
			],
			"min":[
				-0.3965611159801483,
				-0.3272356390953064,
				-0.010000030510127544
			],
			"type":"VEC3"
		},
		{
			"bufferView":30,
			"componentType":5126,
			"count":24,
			"type":"VEC3"
		},
		{
			"bufferView":31,
			"componentType":5126,
			"count":24,
			"type":"VEC2"
		},
		{
			"bufferView":32,
			"componentType":5123,
			"count":36,
			"type":"SCALAR"
		},
		{
			"bufferView":33,
			"componentType":5126,
			"count":162,
			"max":[
				5.839290618896484,
				0.5161089301109314,
				1
			],
			"min":[
				-1.9999809265136719,
				-0.5155794620513916,
				-1
			],
			"type":"VEC3"
		},
		{
			"bufferView":34,
			"componentType":5126,
			"count":162,
			"type":"VEC3"
		},
		{
			"bufferView":35,
			"componentType":5126,
			"count":162,
			"type":"VEC2"
		},
		{
			"bufferView":36,
			"componentType":5123,
			"count":372,
			"type":"SCALAR"
		},
		{
			"bufferView":37,
			"componentType":5126,
			"count":160,
			"max":[
				1.9999847412109375,
				0.5161089301109314,
				1
			],
			"min":[
				-4.893505096435547,
				-0.5155794620513916,
				-1
			],
			"type":"VEC3"
		},
		{
			"bufferView":38,
			"componentType":5126,
			"count":160,
			"type":"VEC3"
		},
		{
			"bufferView":39,
			"componentType":5126,
			"count":160,
			"type":"VEC2"
		},
		{
			"bufferView":40,
			"componentType":5123,
			"count":366,
			"type":"SCALAR"
		}
	],
	"bufferViews":[
		{
			"buffer":0,
			"byteLength":288,
			"byteOffset":0,
			"target":34962
		},
		{
			"buffer":0,
			"byteLength":288,
			"byteOffset":288,
			"target":34962
		},
		{
			"buffer":0,
			"byteLength":192,
			"byteOffset":576,
			"target":34962
		},
		{
			"buffer":0,
			"byteLength":72,
			"byteOffset":768,
			"target":34963
		},
		{
			"buffer":0,
			"byteLength":288,
			"byteOffset":840,
			"target":34962
		},
		{
			"buffer":0,
			"byteLength":288,
			"byteOffset":1128,
			"target":34962
		},
		{
			"buffer":0,
			"byteLength":192,
			"byteOffset":1416,
			"target":34962
		},
		{
			"buffer":0,
			"byteLength":288,
			"byteOffset":1608,
			"target":34962
		},
		{
			"buffer":0,
			"byteLength":288,
			"byteOffset":1896,
			"target":34962
		},
		{
			"buffer":0,
			"byteLength":192,
			"byteOffset":2184,
			"target":34962
		},
		{
			"buffer":0,
			"byteLength":576,
			"byteOffset":2376,
			"target":34962
		},
		{
			"buffer":0,
			"byteLength":576,
			"byteOffset":2952,
			"target":34962
		},
		{
			"buffer":0,
			"byteLength":384,
			"byteOffset":3528,
			"target":34962
		},
		{
			"buffer":0,
			"byteLength":144,
			"byteOffset":3912,
			"target":34963
		},
		{
			"buffer":0,
			"byteLength":1536,
			"byteOffset":4056,
			"target":34962
		},
		{
			"buffer":0,
			"byteLength":1536,
			"byteOffset":5592,
			"target":34962
		},
		{
			"buffer":0,
			"byteLength":744,
			"byteOffset":7128,
			"target":34963
		},
		{
			"buffer":0,
			"byteLength":1536,
			"byteOffset":7872,
			"target":34962
		},
		{
			"buffer":0,
			"byteLength":1536,
			"byteOffset":9408,
			"target":34962
		},
		{
			"buffer":0,
			"byteLength":1536,
			"byteOffset":10944,
			"target":34962
		},
		{
			"buffer":0,
			"byteLength":1536,
			"byteOffset":12480,
			"target":34962
		},
		{
			"buffer":0,
			"byteLength":1536,
			"byteOffset":14016,
			"target":34962
		},
		{
			"buffer":0,
			"byteLength":1536,
			"byteOffset":15552,
			"target":34962
		},
		{
			"buffer":0,
			"byteLength":1536,
			"byteOffset":17088,
			"target":34962
		},
		{
			"buffer":0,
			"byteLength":1536,
			"byteOffset":18624,
			"target":34962
		},
		{
			"buffer":0,
			"byteLength":1536,
			"byteOffset":20160,
			"target":34962
		},
		{
			"buffer":0,
			"byteLength":1536,
			"byteOffset":21696,
			"target":34962
		},
		{
			"buffer":0,
			"byteLength":1536,
			"byteOffset":23232,
			"target":34962
		},
		{
			"buffer":0,
			"byteLength":1536,
			"byteOffset":24768,
			"target":34962
		},
		{
			"buffer":0,
			"byteLength":288,
			"byteOffset":26304,
			"target":34962
		},
		{
			"buffer":0,
			"byteLength":288,
			"byteOffset":26592,
			"target":34962
		},
		{
			"buffer":0,
			"byteLength":192,
			"byteOffset":26880,
			"target":34962
		},
		{
			"buffer":0,
			"byteLength":72,
			"byteOffset":27072,
			"target":34963
		},
		{
			"buffer":0,
			"byteLength":1944,
			"byteOffset":27144,
			"target":34962
		},
		{
			"buffer":0,
			"byteLength":1944,
			"byteOffset":29088,
			"target":34962
		},
		{
			"buffer":0,
			"byteLength":1296,
			"byteOffset":31032,
			"target":34962
		},
		{
			"buffer":0,
			"byteLength":744,
			"byteOffset":32328,
			"target":34963
		},
		{
			"buffer":0,
			"byteLength":1920,
			"byteOffset":33072,
			"target":34962
		},
		{
			"buffer":0,
			"byteLength":1920,
			"byteOffset":34992,
			"target":34962
		},
		{
			"buffer":0,
			"byteLength":1280,
			"byteOffset":36912,
			"target":34962
		},
		{
			"buffer":0,
			"byteLength":732,
			"byteOffset":38192,
			"target":34963
		}
	],
	"buffers":[
		{
			"byteLength":38924,
			"uri":"unit_pegboard.bin"
		}
	]
}
